<svg width="35" height="38" viewBox="0 0 35 38" fill="none" xmlns="http://www.w3.org/2000/svg">
<path d="M21.7708 4.27083C21.7708 6.83333 19.2083 14.5208 19.2083 14.5208H15.7916C15.7916 14.5208 13.2291 6.83333 13.2291 4.27083C13.2291 3.13814 13.6791 2.05183 14.48 1.2509C15.281 0.449961 16.3673 0 17.5 0C18.6327 0 19.719 0.449961 20.5199 1.2509C21.3208 2.05183 21.7708 3.13814 21.7708 4.27083ZM17.5 17.0833C15.6208 17.0833 14.0833 18.6208 14.0833 20.5C14.0833 22.3792 15.6208 23.9167 17.5 23.9167C19.3791 23.9167 20.9166 22.3792 20.9166 20.5C20.9166 18.6208 19.3791 17.0833 17.5 17.0833ZM24.47 8.72958C24.7775 7.44833 25.0337 6.21833 25.1362 5.21042C27.9765 6.62884 30.3652 8.81099 32.034 11.5118C33.7027 14.2126 34.5856 17.3252 34.5833 20.5C34.5833 29.93 26.93 37.5833 17.5 37.5833C8.06996 37.5833 0.416626 29.93 0.416626 20.5C0.416626 13.8033 4.26038 8.01208 9.86371 5.21042C9.98329 6.21833 10.2225 7.46542 10.53 8.72958C8.49056 9.94424 6.80133 11.6674 5.62751 13.7306C4.45369 15.7938 3.83546 18.1263 3.83329 20.5C3.83329 28.0508 9.94913 34.1667 17.5 34.1667C25.0508 34.1667 31.1666 28.0508 31.1666 20.5C31.1666 15.4946 28.4675 11.1212 24.47 8.72958ZM27.75 20.5C27.75 26.1546 23.1545 30.75 17.5 30.75C11.8454 30.75 7.24996 26.1546 7.24996 20.5C7.24996 17.0833 8.92413 14.0596 11.4866 12.1975C11.8795 13.5812 12.597 15.7337 12.597 15.7337C11.4012 16.9637 10.6666 18.655 10.6666 20.5C10.6666 24.2754 13.7245 27.3333 17.5 27.3333C21.2754 27.3333 24.3333 24.2754 24.3333 20.5C24.3333 18.655 23.5987 16.9637 22.4029 15.7337C22.4029 15.7337 23.1033 13.6496 23.5133 12.1975C24.8256 13.1479 25.8939 14.3959 26.6303 15.8391C27.3668 17.2824 27.7505 18.8797 27.75 20.5Z" fill="#CF1717"/>
</svg>
