<svg width="22" height="21" viewBox="0 0 22 21" fill="none" xmlns="http://www.w3.org/2000/svg">
<path d="M11.6875 6.5625H10.3125V9.84375H6.875V11.1562H10.3125V14.4375H11.6875V11.1562H15.125V9.84375H11.6875V6.5625Z" fill="#1761A0"/>
<path d="M20.625 5.25V1.3125H16.5V2.625H5.5V1.3125H1.375V5.25H2.75V15.75H1.375V19.6875H5.5V18.375H16.5V19.6875H20.625V15.75H19.25V5.25H20.625ZM17.875 2.625H19.25V3.9375H17.875V2.625ZM2.75 2.625H4.125V3.9375H2.75V2.625ZM4.125 18.375H2.75V17.0625H4.125V18.375ZM19.25 18.375H17.875V17.0625H19.25V18.375ZM17.875 15.75H16.5V17.0625H5.5V15.75H4.125V5.25H5.5V3.9375H16.5V5.25H17.875V15.75Z" fill="#1761A0"/>
</svg>
