<svg width="32" height="28" viewBox="0 0 32 28" fill="none" xmlns="http://www.w3.org/2000/svg">
<path d="M18.2857 0C10.7124 0 4.57143 6.26889 4.57143 14H0L5.92762 20.0511L6.03429 20.2689L12.1905 14H7.61905C7.61905 7.98 12.3886 3.11111 18.2857 3.11111C24.1829 3.11111 28.9524 7.98 28.9524 14C28.9524 20.02 24.1829 24.8889 18.2857 24.8889C15.3448 24.8889 12.6781 23.66 10.7581 21.6844L8.59429 23.8933C11.0781 26.4289 14.4914 28 18.2857 28C25.859 28 32 21.7311 32 14C32 6.26889 25.859 0 18.2857 0ZM16.7619 7.77778V15.5556L23.2838 19.5067L24.381 17.6244L19.0476 14.3889V7.77778H16.7619Z" fill="#A6AAB8"/>
</svg>
