<svg width="21" height="21" viewBox="0 0 21 21" fill="none" xmlns="http://www.w3.org/2000/svg">
<path d="M19.5358 15.33C19.4948 15.1845 19.3989 15.0606 19.2683 14.9844C19.1377 14.9083 18.9827 14.8858 18.8358 14.9217L17.3833 15.3125C18.1781 14.1409 18.6601 12.7854 18.7833 11.375C18.9025 10.0554 18.7095 8.72636 18.2201 7.49515C17.7306 6.26393 16.9584 5.16513 15.9658 4.28751C15.8511 4.19261 15.7044 4.14518 15.5558 4.15494C15.4072 4.1647 15.268 4.23091 15.1667 4.34001C15.0647 4.45611 15.0129 4.60792 15.0228 4.76212C15.0326 4.91632 15.1033 5.06032 15.2192 5.16251C16.0745 5.91748 16.7399 6.86333 17.1615 7.92342C17.5831 8.98351 17.749 10.128 17.6458 11.2642C17.5459 12.4609 17.1445 13.6128 16.4792 14.6125L16.3333 13.1483C16.3443 13.0622 16.3359 12.9746 16.3088 12.8921C16.2816 12.8096 16.2364 12.7342 16.1764 12.6714C16.1163 12.6086 16.043 12.56 15.9618 12.5292C15.8806 12.4983 15.7936 12.486 15.707 12.4931C15.6204 12.5002 15.5365 12.5266 15.4614 12.5702C15.3863 12.6139 15.3219 12.6738 15.273 12.7455C15.224 12.8173 15.1916 12.899 15.1783 12.9849C15.1649 13.0707 15.1709 13.1585 15.1958 13.2417L15.4875 16.9983L19.1333 16.03C19.2777 15.9878 19.4003 15.8914 19.4753 15.7609C19.5503 15.6305 19.572 15.4761 19.5358 15.33Z" fill="#D73A3A"/>
<path d="M2.51418 9.96336C2.59171 10.0132 2.6794 10.0451 2.77085 10.0567C2.92308 10.0767 3.07706 10.0358 3.19937 9.94298C3.32167 9.85016 3.40245 9.71286 3.42418 9.56086C3.66521 7.7812 4.56965 6.15828 5.95637 5.0171C7.34309 3.87592 9.10973 3.30072 10.9025 3.40669L9.59585 4.29919C9.50339 4.36884 9.43375 4.46442 9.39579 4.57377C9.35782 4.68312 9.35324 4.80129 9.38264 4.91325C9.41203 5.02521 9.47408 5.12589 9.56087 5.20248C9.64766 5.27907 9.75527 5.32811 9.87001 5.34336C10.0014 5.35537 10.133 5.32247 10.2433 5.25003L13.3525 3.11503L10.6925 0.44336C10.6452 0.370829 10.5823 0.309749 10.5084 0.264554C10.4345 0.219358 10.3515 0.191182 10.2654 0.18207C10.1792 0.172959 10.0922 0.18314 10.0105 0.211876C9.92876 0.240612 9.85448 0.28718 9.79302 0.348201C9.73156 0.409222 9.68445 0.483163 9.65513 0.564658C9.6258 0.646152 9.61499 0.733153 9.62348 0.819346C9.63197 0.905538 9.65955 0.988759 9.70421 1.06297C9.74887 1.13717 9.80949 1.2005 9.88168 1.24836L10.8733 2.24003C8.803 2.14103 6.77076 2.82182 5.17784 4.148C3.58492 5.47417 2.54707 7.34936 2.26918 9.40336C2.25422 9.51023 2.26921 9.61915 2.31246 9.71802C2.35571 9.81688 2.42554 9.90181 2.51418 9.96336Z" fill="#D73A3A"/>
<path d="M12.6758 17.4592C11.7649 17.7501 10.8041 17.8514 9.85251 17.7567C8.69363 17.6431 7.57982 17.2491 6.60722 16.6089C5.63462 15.9686 4.83247 15.1012 4.27001 14.0817L5.72251 14.6242C5.8564 14.6474 5.9942 14.6231 6.11212 14.5556C6.23004 14.4881 6.32068 14.3815 6.36839 14.2542C6.4161 14.127 6.4179 13.9871 6.37347 13.8587C6.32903 13.7303 6.24116 13.6214 6.12501 13.5508L3.44751 12.5592L2.59001 12.25L1.94251 15.9542C1.92006 16.1022 1.95538 16.2532 2.04116 16.3759C2.12695 16.4986 2.25662 16.5836 2.40334 16.6133H2.50251C2.6398 16.6158 2.77358 16.5698 2.88028 16.4834C2.98698 16.397 3.05978 16.2757 3.08584 16.1408L3.33084 14.7408C3.99061 15.8966 4.91732 16.8777 6.03358 17.6023C7.14985 18.3268 8.42327 18.7738 9.74751 18.9058C10.8546 19.0156 11.9725 18.8964 13.0317 18.5558C13.1665 18.5 13.2756 18.3956 13.3372 18.2633C13.3989 18.131 13.4087 17.9804 13.3648 17.8412C13.3208 17.702 13.2263 17.5844 13.0998 17.5115C12.9733 17.4386 12.8241 17.4158 12.6817 17.4475L12.6758 17.4592Z" fill="#D73A3A"/>
<path d="M12.8333 7.58331H8.16668C8.01197 7.58331 7.86359 7.64477 7.7542 7.75417C7.6448 7.86356 7.58334 8.01194 7.58334 8.16665V12.8333C7.58334 12.988 7.6448 13.1364 7.7542 13.2458C7.86359 13.3552 8.01197 13.4166 8.16668 13.4166H12.8333C12.9881 13.4166 13.1364 13.3552 13.2458 13.2458C13.3552 13.1364 13.4167 12.988 13.4167 12.8333V8.16665C13.4167 8.01194 13.3552 7.86356 13.2458 7.75417C13.1364 7.64477 12.9881 7.58331 12.8333 7.58331ZM12.25 12.25H8.75001V8.74998H12.25V12.25Z" fill="#D73A3A"/>
</svg>
